<?xml version="1.0" encoding="UTF-8"?>
<svg id="Layer_1" xmlns="http://www.w3.org/2000/svg" version="1.1" viewBox="0 0 36 36">
  <!-- Generator: Adobe Illustrator 29.5.0, SVG Export Plug-In . SVG Version: 2.1.0 Build 35)  -->
  <defs>
    <style>
      .st0 {
        fill: #333;
        fill-rule: evenodd;
      }
    </style>
  </defs>
  <path class="st0" d="M4.39,25.61c2.93,2.93,6.77,4.39,10.61,4.39,3.46,0,6.92-1.2,9.72-3.59l9.54,9.53,1.7-1.7-9.54-9.54c5.03-5.89,4.77-14.75-.8-20.32C22.68,1.46,18.84,0,15,0S7.32,1.46,4.39,4.39c-5.86,5.86-5.86,15.35,0,21.21ZM2.4,15c0-3.37,1.31-6.53,3.69-8.91s5.54-3.69,8.91-3.69,6.53,1.31,8.91,3.69c4.91,4.91,4.91,12.91,0,17.82-2.38,2.38-5.54,3.69-8.91,3.69s-6.53-1.31-8.91-3.69c-2.38-2.38-3.69-5.54-3.69-8.91Z"/>
</svg>