<?xml version="1.0" encoding="UTF-8"?>
<svg id="Artwork_EXPORT_THIS_LAYER_ONLY" xmlns="http://www.w3.org/2000/svg" version="1.1" viewBox="0 0 192 192">
  <!-- Generator: Adobe Illustrator 30.0.0, SVG Export Plug-In . SVG Version: 2.1.1 Build 123)  -->
  <defs>
    <style>
      .st0 {
        fill: #fff;
      }

      .st1 {
        fill: #333;
      }

      .st2 {
        fill: #db0011;
      }
    </style>
  </defs>
  <polygon class="st2" points="173.42 53.83 173.42 138.17 149.48 138.17 107.31 96 149.48 53.83 173.42 53.83"/>
  <polygon class="st2" points="149.38 138.07 149.48 138.17 149.38 138.17 149.38 138.07"/>
  <polygon class="st2" points="149.48 53.83 149.38 53.93 149.38 53.83 149.48 53.83"/>
  <path class="st1" d="M105.8,94c-.8-3.91-3.89-7-7.8-7.8V26h-4v60.2c-3.91.8-7,3.89-7.8,7.8H26v4h60.2c.8,3.91,3.89,7,7.8,7.8v60.2h4v-60.2c3.91-.8,7-3.89,7.8-7.8l.15-1.32-.06-1.88s-.09-.8-.09-.8ZM101.65,98c-.59,1.7-1.94,3.05-3.65,3.65-.62.23-1.3.35-2,.35s-1.38-.12-2-.35c-1.71-.6-3.06-1.95-3.65-3.65-.23-.63-.35-1.3-.35-2s.12-1.37.35-2c.59-1.7,1.94-3.05,3.65-3.65.62-.23,1.3-.35,2-.35s1.38.12,2,.35c1.71.6,3.06,1.95,3.65,3.65.23.63.35,1.3.35,2s-.12,1.37-.35,2Z"/>
  <g>
    <rect class="st1" x="145.74" y="40.26" width="8" height="4" transform="translate(13.98 118.26) rotate(-45)"/>
    <path class="st1" d="M110.99,83.84l-2.83-2.83,9.05-9.05,2.83,2.83-9.05,9.05ZM130.22,64.6l-2.83-2.83,9.05-9.05,2.83,2.83-9.05,9.05Z"/>
    <path class="st1" d="M55.55,139.27l-2.83-2.83,9.05-9.05,2.83,2.83-9.05,9.05ZM74.79,120.04l-2.83-2.83,9.05-9.05,2.83,2.83-9.05,9.05Z"/>
    <rect class="st1" x="38.26" y="147.74" width="8" height="4" transform="translate(-93.5 73.74) rotate(-45)"/>
  </g>
  <g>
    <rect class="st0" x="168" y="94" width="6" height="4"/>
    <path class="st0" d="M107.2,98v-4h20.8v4h-20.8ZM141.4,98v-4h14.8v4h-14.8Z"/>
  </g>
  <g>
    <rect class="st1" x="147.74" y="145.74" width="4" height="8" transform="translate(-62.02 149.74) rotate(-45)"/>
    <path class="st1" d="M136.45,139.27l-9.05-9.05,2.83-2.83,9.05,9.05-2.83,2.83ZM117.21,120.04l-9.05-9.05,2.83-2.83,9.05,9.05-2.83,2.83Z"/>
    <path class="st1" d="M81.01,83.84l-9.05-9.05,2.83-2.83,9.05,9.05-2.83,2.83ZM61.78,64.6l-9.05-9.05,2.83-2.83,9.05,9.05-2.83,2.83Z"/>
    <rect class="st1" x="40.26" y="38.26" width="4" height="8" transform="translate(-17.5 42.26) rotate(-45)"/>
  </g>
</svg>