<?xml version="1.0" encoding="UTF-8"?>
<svg id="Artwork_EXPORT_THIS_LAYER_ONLY" data-name="Artwork EXPORT THIS LAYER ONLY" xmlns="http://www.w3.org/2000/svg" viewBox="0 0 192 192">
  <defs>
    <style>
      .cls-1 {
        fill: #333;
      }

      .cls-2 {
        fill: #db0011;
      }
    </style>
  </defs>
  <path class="cls-1" d="m159.57,59.28v-14.58l-13.92,3.22v-14.36l-49.65,25.35-49.65-25.35v14.07l-13.92-3.22v14.74h-11.06v99.29h74.63s74.33,0,74.33,0V59.28h-10.76Zm-4-9.55v90.7l-45.24,10.45,35.32-18.03V52.02l9.92-2.29Zm-13.92,80.68l-43.65,22.28V62.37l43.65-22.28v90.32ZM50.35,40.09l43.65,22.28v90.32l-43.65-22.28V40.09Zm-13.92,9.35l9.92,2.29v81.13l34.27,17.49-44.19-10.21V49.44Zm-11.06,13.71h7.06v80.17l48.12,11.12H25.37V63.15Zm140.95,91.29h-53.6l46.84-10.82V63.28h6.76v91.16Z"/>
  <polygon class="cls-2" points="120.35 87.7 108.5 95.83 108.5 52.52 120.35 46.47 120.35 87.7"/>
</svg>