<?xml version="1.0" encoding="UTF-8"?>
<svg id="Artwork_EXPORT_THIS_LAYER_ONLY" data-name="Artwork EXPORT THIS LAYER ONLY" xmlns="http://www.w3.org/2000/svg" viewBox="0 0 192 192">
  <defs>
    <style>
      .cls-1 {
        fill: #333;
      }

      .cls-2 {
        fill: #db0011;
      }
    </style>
  </defs>
  <path class="cls-1" d="m164,108c0-18.16-7.07-35.24-19.92-48.08l-1.41-1.41-44.67,44.67v-63.17h-2c-37.5,0-68,30.5-68,68s29.43,66.88,66,67.95v.05h4v-.05c36.57-1.06,66-31.12,66-67.95Zm-4.05-2h-59.12l41.82-41.82c10.75,11.43,16.83,26.14,17.31,41.82Zm-127.95,2c0-34.62,27.63-62.91,62-63.97v127.94c-34.37-1.06-62-29.35-62-63.97Zm66,63.97v-61.97h61.95c-1.04,33.7-28.25,60.93-61.95,61.97Z"/>
  <path class="cls-2" d="m152.67,35.33c-12.89-12.89-29.78-19.33-46.67-19.33v66s46.67-46.67,46.67-46.67Z"/>
</svg>