<?xml version="1.0" encoding="UTF-8"?>
<svg id="Artwork_EXPORT_THIS_LAYER_ONLY" data-name="Artwork EXPORT THIS LAYER ONLY" xmlns="http://www.w3.org/2000/svg" viewBox="0 0 192 192">
  <defs>
    <style>
      .cls-1 {
        fill: #333;
      }

      .cls-2 {
        fill: #db0011;
      }
    </style>
  </defs>
  <rect class="cls-2" x="81.86" y="81.86" width="28.28" height="28.28" transform="translate(-39.76 96) rotate(-45)"/>
  <g>
    <polygon class="cls-1" points="54.59 82.45 44 93.01 33.41 82.45 30.59 85.29 41.17 95.84 30.65 106.32 33.48 109.15 44 98.66 54.52 109.15 57.34 106.32 46.83 95.84 57.41 85.29 54.59 82.45"/>
    <polygon class="cls-1" points="158.59 134.45 148 145.01 137.41 134.45 134.59 137.29 145.17 147.84 134.65 158.32 137.48 161.15 148 150.66 158.52 161.15 161.34 158.32 150.83 147.84 161.41 137.29 158.59 134.45"/>
    <polygon class="cls-1" points="82.65 54.32 85.48 57.15 96 46.66 106.52 57.15 109.34 54.32 98.83 43.84 109.41 33.29 106.59 30.45 96 41.01 85.41 30.45 82.59 33.29 93.17 43.84 82.65 54.32"/>
    <path class="cls-1" d="m44,59.87c8.84,0,16-7.16,16-16s-7.16-16-16-16-16,7.16-16,16,7.16,16,16,16Zm0-28c6.62,0,12,5.38,12,12s-5.38,12-12,12-12-5.38-12-12,5.38-12,12-12Z"/>
    <path class="cls-1" d="m150,80.01v-20.28c7.89-.99,14-7.7,14-15.86,0-8.84-7.16-16-16-16s-16,7.16-16,16c0,8.16,6.11,14.88,14,15.86v20.28c-7.89.99-14,7.7-14,15.86,0,3.7,1.27,7.09,3.37,9.8l-29.57,29.57c-2.71-2.11-6.1-3.37-9.8-3.37-8.15,0-14.86,6.1-15.86,13.98h-20.28c-1-7.88-7.71-13.98-15.86-13.98-8.84,0-16,7.16-16,16s7.16,16,16,16c8.15,0,14.86-6.1,15.86-13.98h20.28c1,7.88,7.71,13.98,15.86,13.98,8.84,0,16-7.16,16-16,0-3.7-1.27-7.09-3.37-9.8l29.57-29.57c2.71,2.11,6.1,3.37,9.8,3.37,8.84,0,16-7.16,16-16,0-8.16-6.11-14.88-14-15.86Zm-106,79.86c-6.62,0-12-5.38-12-12s5.38-12,12-12,12,5.38,12,12-5.38,12-12,12Zm52,0c-6.62,0-12-5.38-12-12s5.38-12,12-12,12,5.38,12,12-5.38,12-12,12Zm40-116c0-6.62,5.38-12,12-12s12,5.38,12,12-5.38,12-12,12-12-5.38-12-12Zm12,64c-6.62,0-12-5.38-12-12s5.38-12,12-12,12,5.38,12,12-5.38,12-12,12Z"/>
  </g>
</svg>