<?xml version="1.0" encoding="UTF-8"?>
<svg id="Artwork_EXPORT_THIS_LAYER_ONLY" data-name="Artwork EXPORT THIS LAYER ONLY" xmlns="http://www.w3.org/2000/svg" viewBox="0 0 192 192">
  <defs>
    <style>
      .cls-1 {
        fill: #333;
      }

      .cls-2 {
        fill: #db0011;
      }
    </style>
  </defs>
  <path class="cls-1" d="m159.77,86.02c-4.82,0-8.86,3.43-9.8,7.98h-49.14l34.72-34.72c1.59,1.06,3.49,1.68,5.53,1.68,5.51,0,10-4.49,10-10s-4.49-10-10-10-10,4.49-10,10c0,2.02.61,3.91,1.65,5.48l-34.73,34.73v-49.11c4.56-.93,8-4.97,8-9.8,0-5.51-4.49-10-10-10s-10,4.49-10,10c0,4.83,3.44,8.87,8,9.8v49.11l-34.74-34.74c1.03-1.57,1.64-3.45,1.64-5.47,0-5.51-4.49-10-10-10s-10,4.49-10,10,4.49,10,10,10c2.05,0,3.95-.62,5.54-1.68l34.73,34.73h-49.16c-.94-4.55-4.97-7.98-9.8-7.98-5.51,0-10,4.49-10,10s4.49,10,10,10c4.83,0,8.88-3.45,9.8-8.02h49.15l-34.57,34.57c-1.62-1.13-3.58-1.79-5.7-1.79-5.51,0-10,4.49-10,10s4.49,10,10,10,10-4.49,10-10c0-1.95-.57-3.77-1.54-5.31l34.64-34.64v48.84c-4.56.93-8,4.97-8,9.8,0,5.51,4.49,10,10,10s10-4.49,10-10c0-4.83-3.44-8.87-8-9.8v-48.84l34.63,34.63c-.97,1.54-1.54,3.36-1.54,5.32,0,5.51,4.49,10,10,10s10-4.49,10-10-4.49-10-10-10c-2.11,0-4.07.66-5.69,1.79l-34.56-34.56h49.13c.92,4.57,4.97,8.02,9.8,8.02,5.51,0,10-4.49,10-10s-4.49-10-10-10Zm-18.68-41.06c3.31,0,6,2.69,6,6s-2.69,6-6,6-6-2.69-6-6,2.69-6,6-6Zm-90.19,12c-3.31,0-6-2.69-6-6s2.69-6,6-6,6,2.69,6,6-2.69,6-6,6Zm-18.68,45.06c-3.31,0-6-2.69-6-6s2.69-6,6-6,6,2.69,6,6-2.69,6-6,6Zm18.68,44.76c-3.31,0-6-2.69-6-6s2.69-6,6-6,6,2.69,6,6-2.69,6-6,6Zm51.1,12.69c0,3.31-2.69,6-6,6s-6-2.69-6-6,2.69-6,6-6,6,2.69,6,6Zm-6-121.21c-3.31,0-6-2.69-6-6s2.69-6,6-6,6,2.69,6,6-2.69,6-6,6Zm45.09,96.52c3.31,0,6,2.69,6,6s-2.69,6-6,6-6-2.69-6-6,2.69-6,6-6Zm18.68-32.76c-3.31,0-6-2.69-6-6s2.69-6,6-6,6,2.69,6,6-2.69,6-6,6Z"/>
  <rect class="cls-2" x="76.96" y="76.82" width="38.95" height="38.95" transform="translate(-39.84 96.4) rotate(-45)"/>
</svg>